<?xml version="1.0" standalone="no"?><!DOCTYPE svg PUBLIC "-//W3C//DTD SVG 1.1//EN" "http://www.w3.org/Graphics/SVG/1.1/DTD/svg11.dtd"><svg t="1545297010352" class="icon" style="" viewBox="0 0 1024 1024" version="1.1" xmlns="http://www.w3.org/2000/svg" p-id="2437" xmlns:xlink="http://www.w3.org/1999/xlink" width="200" height="200"><defs><style type="text/css"></style></defs><path d="M227.555556 170.666667c-62.577778 0-113.777778 51.2-113.777778 113.777777v455.111112c0 62.577778 51.2 113.777778 113.777778 113.777777h568.888888c62.577778 0 113.777778-51.2 113.777778-113.777777V284.444444c0-62.577778-51.2-113.777778-113.777778-113.777777H227.555556z m0-56.888889h568.888888c96.711111 0 170.666667 73.955556 170.666667 170.666666v455.111112c0 96.711111-73.955556 170.666667-170.666667 170.666666H227.555556c-96.711111 0-170.666667-73.955556-170.666667-170.666666V284.444444c0-96.711111 73.955556-170.666667 170.666667-170.666666z m45.511111 398.222222c0 22.755556 17.066667 45.511111 45.511111 45.511111s45.511111-17.066667 45.511111-45.511111-17.066667-45.511111-45.511111-45.511111-45.511111 22.755556-45.511111 45.511111z m193.422222 0c0 22.755556 17.066667 45.511111 45.511111 45.511111s45.511111-17.066667 45.511111-45.511111-17.066667-45.511111-45.511111-45.511111-45.511111 22.755556-45.511111 45.511111z m193.422222 0c0 22.755556 17.066667 45.511111 45.511111 45.511111s45.511111-17.066667 45.511111-45.511111-17.066667-45.511111-45.511111-45.511111-45.511111 22.755556-45.511111 45.511111z" fill="#999999" p-id="2438"></path></svg>